<svg xmlns="http://www.w3.org/2000/svg" viewBox="0 0 256 256">
  <defs>
    <linearGradient id="bg" x1="0" y1="0" x2="1" y2="1">
      <stop offset="0%" stop-color="#163854"/>
      <stop offset="55%" stop-color="#0c1f34"/>
      <stop offset="100%" stop-color="#1d4a6f"/>
    </linearGradient>
    <linearGradient id="gold" x1="0" y1="0" x2="1" y2="1">
      <stop offset="0%" stop-color="#fff0ba"/>
      <stop offset="45%" stop-color="#d7a44a"/>
      <stop offset="100%" stop-color="#8e5b1b"/>
    </linearGradient>
  </defs>
  <rect x="10" y="10" width="236" height="236" rx="56" fill="url(#bg)"/>
  <path d="M60 176c24-56 63-92 120-110-18 18-28 34-34 52 18 0 34-4 49-13-10 28-30 51-59 67-25 13-51 19-76 19z" fill="url(#gold)"/>
  <path d="M94 154c22-24 48-40 80-48-9 10-14 20-16 30 12 0 24-3 36-9-10 15-24 28-43 38-18 10-36 15-57 17z" fill="#f6f3ec" opacity=".18"/>
  <path d="M173 86c10 2 18 7 24 14-8 1-16 1-24-2-5-2-9-5-12-9 4-2 8-4 12-3z" fill="#f8e9b0"/>
  <circle cx="160" cy="97" r="4.8" fill="#0d1725"/>
</svg>
